/* XPM */
static char * warning_xpm[] = {
"12 12 32 1",
" 	c None",
".	c #600000",
"+	c #660000",
"@	c #6A0000",
"#	c #DF0000",
"$	c #FB0000",
"%	c #FF1818",
"&	c #FF0C0C",
"*	c #EF0000",
"=	c #C40000",
"-	c #850000",
";	c #FF0000",
">	c #FFEFEF",
",	c #FFA7A7",
"'	c #F30000",
")	c #FF7F7F",
"!	c #FFFFFF",
"~	c #FF2020",
"{	c #890000",
"]	c #FF8080",
"^	c #9F0000",
"/	c #FF4444",
"(	c #FFD7D7",
"_	c #9B0000",
":	c #FF1010",
"<	c #FFC7C7",
"[	c #FF8383",
"}	c #FF6C6C",
"|	c #B10000",
"1	c #FF1C1C",
"2	c #FF8B8B",
"3	c #FF0404",
"    .++     ",
"  @#$%&*=   ",
" -;;%>,;;*  ",
" ';;)!!~;;= ",
"{;;;]!!~;;* ",
"^;;;]!!~;;;+",
"^;;;/!(&;;;+",
"_;;;:<[;;;$.",
"+;;;&,};;;# ",
" |;;)!!~;;@ ",
"  |;1<23'-  ",
"   +_^^{    "};
